<svg width="16" height="16" viewBox="0 0 16 16" fill="none" xmlns="http://www.w3.org/2000/svg">
<g clip-path="url(#clip0_236_56)">
<path d="M15 9C14.4 9 14 9.4 14 10V14H2V2H6C6.6 2 7 1.6 7 1C7 0.4 6.6 0 6 0H2C0.895 0 0 0.895 0 2V14C0 15.105 0.895 16 2 16H14C15.105 16 16 15.105 16 14V10C16 9.4 15.6 9 15 9Z" fill="white"/>
<path d="M13.854 0.146006C13.659 -0.0489941 13.342 -0.0489941 13.147 0.146006L6.146 7.14601C6.091 7.20101 6.049 7.26801 6.025 7.34101L5.025 10.341C4.965 10.521 5.012 10.719 5.146 10.853C5.242 10.948 5.369 10.999 5.5 10.999C5.553 10.999 5.606 10.991 5.658 10.973L8.658 9.97301C8.731 9.94901 8.799 9.90701 8.853 9.85201L15.854 2.85401C16.049 2.65901 16.049 2.34201 15.854 2.14701L13.854 0.146006Z" fill="white"/>
</g>
<defs>
<clipPath id="clip0_236_56">
<rect width="16" height="16" fill="white"/>
</clipPath>
</defs>
</svg>
