<svg width="150" height="34" viewBox="0 0 150 34" fill="none" xmlns="http://www.w3.org/2000/svg">
<path d="M0.00720367 26.1022C0.00480459 20.2173 0.0024055 14.3323 6.41481e-06 8.44735C-0.00479176 3.04461 2.68218 -0.0262212 7.86421 0.000168701C13.0462 0.0217605 15.726 2.85267 15.7116 7.78999C15.7116 8.67525 15.7068 9.56052 15.7044 10.4458C14.0443 10.5273 12.3817 10.6137 10.7215 10.7025C10.7215 9.69007 10.7263 8.67525 10.7263 7.66284C10.7311 5.3981 9.67792 4.56082 7.99856 4.59681C6.3216 4.6328 5.266 5.54685 5.2636 7.88116C5.2588 13.8357 5.254 19.7902 5.24921 25.7448C5.24921 28.0815 6.29521 28.758 7.96497 28.5085C9.63473 28.2614 10.6879 27.2994 10.6927 25.0346C10.6975 22.9642 10.6999 20.8914 10.7047 18.821C9.82666 18.9026 8.95099 18.9865 8.07533 19.0729C8.07533 17.5399 8.08013 16.0093 8.08252 14.4762C10.6184 14.2867 13.1566 14.1092 15.6948 13.9412C15.6852 17.3216 15.678 20.7019 15.6684 24.0822C15.6564 29.0243 12.9695 32.2343 7.81863 33.1315C2.67499 34.048 0.0120018 31.5098 0.00720367 26.1022Z" fill="#E50914"/>
<path d="M30.8258 23.7895C28.7938 23.9694 26.7642 24.1613 24.7369 24.3677C24.4275 26.3421 24.1156 28.3214 23.8061 30.3102C22.1771 30.5189 20.5505 30.7348 18.924 30.9628C20.7736 20.5315 22.6281 10.3618 24.485 0.417592C26.8673 0.412794 29.252 0.407996 31.6343 0.403198C33.4216 10.0667 35.2065 19.5335 36.9963 28.8468C35.2353 29.0123 33.4744 29.1898 31.7159 29.3794C31.4184 27.5225 31.1233 25.6584 30.8258 23.7895ZM30.1685 19.8934C29.3864 15.0544 28.6067 10.1723 27.8246 5.24455C27.0233 10.2059 26.222 15.2128 25.4207 20.27C27.0017 20.1381 28.5851 20.0133 30.1685 19.8934Z" fill="#E50914"/>
<path d="M41.0987 0.388821C43.577 0.384022 46.0576 0.381621 48.5359 0.379222C49.6826 7.04388 50.8318 13.651 51.9834 20.2149C53.1709 13.5526 54.3584 6.94072 55.5412 0.369624C58.0195 0.367225 60.5001 0.364826 62.9784 0.362427C62.9664 9.32061 62.9544 18.2764 62.9424 27.2346C61.2726 27.285 59.6028 27.3449 57.9331 27.4169C57.9475 20.5915 57.9595 13.7637 57.9739 6.93832C56.6472 13.7805 55.3181 20.6635 53.9842 27.604C52.5088 27.6808 51.0309 27.7672 49.5555 27.8583C48.26 21.0066 46.9693 14.0972 45.681 7.12065C45.657 14.1236 45.6354 21.1241 45.6114 28.127C44.0712 28.2398 42.5334 28.3598 40.9955 28.4893C41.0291 19.1233 41.0627 9.75485 41.0963 0.388821H41.0987Z" fill="#E50914"/>
<path d="M67.8173 0.360089C72.6155 0.357689 77.4136 0.355286 82.2118 0.355286C82.2118 1.6292 82.2166 2.90311 82.219 4.17703C79.177 4.16983 76.1373 4.16743 73.0977 4.17223C73.0977 6.52334 73.0977 8.87684 73.0977 11.2279C75.516 11.2231 77.9366 11.2279 80.3549 11.2375C80.3549 12.5115 80.3597 13.783 80.3597 15.0569C77.939 15.0401 75.5184 15.0353 73.0977 15.0425C73.0977 17.775 73.0977 20.51 73.0977 23.2426C76.1469 23.2282 79.1985 23.245 82.2478 23.2905C82.2478 24.5645 82.2526 25.8384 82.255 27.1123C77.4376 27.0283 72.6179 27.0283 67.7981 27.1171C67.8029 18.1973 67.8077 9.27749 67.8125 0.360089H67.8173Z" fill="#E50914"/>
<path d="M86.3575 0.352858C91.0117 0.352858 95.666 0.35286 100.32 0.355259C100.325 1.66276 100.332 2.97267 100.337 4.28017C97.4413 4.25378 94.5456 4.23219 91.6475 4.21299C91.6547 6.72244 91.6643 9.23427 91.6715 11.7437C93.9458 11.7821 96.2201 11.8301 98.4945 11.8877C98.4993 13.1904 98.5041 14.4955 98.5089 15.7982C96.2345 15.7238 93.9578 15.659 91.6835 15.6062C91.6955 19.5335 91.7075 23.4585 91.7195 27.3858C89.9537 27.3138 88.188 27.2538 86.4199 27.2034C86.3983 18.2524 86.3767 9.30145 86.3551 0.350464L86.3575 0.352858Z" fill="#E50914"/>
<path d="M104.336 0.357687C106.095 0.357687 107.856 0.357689 109.614 0.360089C109.653 8.40662 109.691 16.4531 109.729 24.5021C112.627 24.7156 115.526 24.9531 118.419 25.2194C118.426 26.6013 118.433 27.9808 118.438 29.3626C113.784 28.8636 109.122 28.4462 104.459 28.1079C104.418 18.857 104.377 9.60616 104.334 0.355286L104.336 0.357687Z" fill="#E50914"/>
<path d="M122.315 0.37207C124.074 0.37207 125.834 0.376866 127.593 0.376866C127.636 10.405 127.682 20.4356 127.725 30.4662C125.969 30.2383 124.213 30.02 122.454 29.8136C122.409 19.999 122.361 10.1843 122.315 0.37207Z" fill="#E50914"/>
<path d="M137.676 15.7837C135.731 10.5057 133.778 5.37887 131.823 0.383972C133.677 0.383972 135.534 0.38877 137.388 0.391169C138.598 3.82426 139.807 7.31733 141.013 10.8776C142.235 7.45168 143.456 3.96101 144.682 0.403169C146.344 0.405568 148.007 0.407962 149.672 0.41276C147.741 5.87068 145.816 11.1535 143.897 16.2875C145.932 22.0021 147.959 27.8967 149.974 34C148.136 33.6545 146.294 33.3234 144.451 33.0043C143.158 28.9475 141.86 24.9746 140.56 21.0785C139.248 24.6987 137.935 28.2446 136.628 31.7304C134.973 31.4761 133.315 31.2338 131.657 31.0011C133.66 26.0662 135.666 21.0017 137.676 15.7861V15.7837Z" fill="#E50914"/>
</svg>
